<svg width="40" height="40" viewBox="0 0 40 40" fill="none" xmlns="http://www.w3.org/2000/svg">
<g id="Cart">
<path id="Vector" fill-rule="evenodd" clip-rule="evenodd" d="M14.4487 2.52501C14.2302 2.54743 14.0214 2.62705 13.8434 2.75587C13.6655 2.88469 13.5246 3.05814 13.435 3.25874L8.76499 13.7675H5.78624C3.75499 13.7675 2.20749 15.66 2.55124 17.6437L5.39499 34.0625C5.74374 36.0725 7.51874 37.5175 9.53624 37.5175H30.495C31.4768 37.5147 32.427 37.17 33.1822 36.5427C33.9375 35.9154 34.4507 35.0446 34.6337 34.08L34.6362 34.0625L37.1875 19.3375C37.2286 19.0179 37.1447 18.6949 36.9533 18.4357C36.7619 18.1765 36.4779 18.0012 36.1604 17.9464C35.8429 17.8915 35.5165 17.9614 35.2493 18.1414C34.9821 18.3215 34.7947 18.5977 34.7262 18.9125L32.1775 33.62C32.1063 34.0137 31.8986 34.3696 31.5908 34.6252C31.2831 34.8809 30.895 35.0198 30.495 35.0175H9.53749C8.70499 35.0175 7.99624 34.4363 7.85749 33.6375L5.01374 17.2187C4.92124 16.6875 5.26499 16.2675 5.78749 16.2675H25.0125C25.344 16.2675 25.662 16.1358 25.8964 15.9014C26.1308 15.667 26.2625 15.349 26.2625 15.0175C26.2625 14.686 26.1308 14.368 25.8964 14.1336C25.662 13.8992 25.344 13.7675 25.0125 13.7675H11.5025L15.7212 4.275C15.81 4.07473 15.8446 3.85463 15.8216 3.63678C15.7985 3.41893 15.7186 3.21096 15.5898 3.03371C15.4611 2.85647 15.288 2.71618 15.088 2.6269C14.8879 2.53761 14.6666 2.50248 14.4487 2.52501ZM24.9462 2.62501C24.7962 2.69164 24.6607 2.78717 24.5476 2.90615C24.4345 3.02514 24.3459 3.16524 24.287 3.31846C24.228 3.47168 24.1998 3.63503 24.204 3.79915C24.2081 3.96328 24.2446 4.12497 24.3112 4.275L26.9262 10.1563C27.0608 10.4587 27.3098 10.6953 27.6187 10.8144C27.9276 10.9334 28.271 10.9251 28.5737 10.7912C28.8765 10.6567 29.1134 10.4074 29.2324 10.0983C29.3515 9.78914 29.343 9.44536 29.2087 9.1425L26.5937 3.25874C26.4589 2.95656 26.2098 2.72017 25.901 2.60138C25.5921 2.48258 25.2488 2.49108 24.9462 2.62501Z" fill="#171064"/>
<path id="Vector_2" fill-rule="evenodd" clip-rule="evenodd" d="M20 18.7675C19.6685 18.7675 19.3505 18.8992 19.1161 19.1336C18.8817 19.368 18.75 19.686 18.75 20.0175V30.0175C18.75 30.349 18.8817 30.667 19.1161 30.9014C19.3505 31.1358 19.6685 31.2675 20 31.2675C20.3315 31.2675 20.6495 31.1358 20.8839 30.9014C21.1183 30.667 21.25 30.349 21.25 30.0175V20.0175C21.25 19.686 21.1183 19.368 20.8839 19.1336C20.6495 18.8992 20.3315 18.7675 20 18.7675ZM15 18.7675C14.6685 18.7675 14.3505 18.8992 14.1161 19.1336C13.8817 19.368 13.75 19.686 13.75 20.0175V30.0175C13.75 30.349 13.8817 30.667 14.1161 30.9014C14.3505 31.1358 14.6685 31.2675 15 31.2675C15.3315 31.2675 15.6495 31.1358 15.8839 30.9014C16.1183 30.667 16.25 30.349 16.25 30.0175V20.0175C16.25 19.686 16.1183 19.368 15.8839 19.1336C15.6495 18.8992 15.3315 18.7675 15 18.7675ZM25 22.5175C24.6685 22.5175 24.3505 22.6492 24.1161 22.8836C23.8817 23.118 23.75 23.436 23.75 23.7675V30.0175C23.75 30.349 23.8817 30.667 24.1161 30.9014C24.3505 31.1358 24.6685 31.2675 25 31.2675C25.3315 31.2675 25.6495 31.1358 25.8839 30.9014C26.1183 30.667 26.25 30.349 26.25 30.0175V23.7675C26.25 23.436 26.1183 23.118 25.8839 22.8836C25.6495 22.6492 25.3315 22.5175 25 22.5175ZM31.25 7.51752C27.1225 7.51752 23.75 10.89 23.75 15.0175C23.75 19.145 27.1225 22.5175 31.25 22.5175C35.3775 22.5175 38.75 19.145 38.75 15.0175C38.75 10.89 35.3775 7.51752 31.25 7.51752ZM31.25 10.0175C34.0263 10.0175 36.25 12.2413 36.25 15.0175C36.25 17.7925 34.0263 20.0175 31.25 20.0175C28.4738 20.0175 26.25 17.7925 26.25 15.0175C26.25 12.2413 28.4738 10.0175 31.25 10.0175Z" fill="#E1742E"/>
<path id="Vector_3" fill-rule="evenodd" clip-rule="evenodd" d="M31.25 11.2675C30.9185 11.2675 30.6005 11.3992 30.3661 11.6336C30.1317 11.8681 30 12.186 30 12.5175V13.7675H28.75C28.4185 13.7675 28.1005 13.8992 27.8661 14.1336C27.6317 14.3681 27.5 14.686 27.5 15.0175C27.5 15.349 27.6317 15.667 27.8661 15.9014C28.1005 16.1358 28.4185 16.2675 28.75 16.2675H30V17.5175C30 17.849 30.1317 18.167 30.3661 18.4014C30.6005 18.6358 30.9185 18.7675 31.25 18.7675C31.5815 18.7675 31.8995 18.6358 32.1339 18.4014C32.3683 18.167 32.5 17.849 32.5 17.5175V16.2675H33.75C34.0815 16.2675 34.3995 16.1358 34.6339 15.9014C34.8683 15.667 35 15.349 35 15.0175C35 14.686 34.8683 14.3681 34.6339 14.1336C34.3995 13.8992 34.0815 13.7675 33.75 13.7675H32.5V12.5175C32.5 12.186 32.3683 11.8681 32.1339 11.6336C31.8995 11.3992 31.5815 11.2675 31.25 11.2675Z" fill="#E1742E"/>
</g>
</svg>
