<svg width="40" height="40" viewBox="0 0 40 40" fill="none" xmlns="http://www.w3.org/2000/svg">
<g id="7787567_wrong_delete_remove_trash_minus_icon 1">
<path id="Vector" d="M22.8 20L32.6 10.2C32.9651 9.82742 33.1684 9.32579 33.1658 8.80414C33.1632 8.28248 32.9548 7.78294 32.5859 7.41407C32.217 7.04519 31.7175 6.8368 31.1958 6.83416C30.6742 6.83153 30.1725 7.03487 29.8 7.39999L20 17.2L10.2 7.39999C9.82738 7.03487 9.32576 6.83153 8.80411 6.83416C8.28245 6.8368 7.78291 7.04519 7.41404 7.41407C7.04516 7.78294 6.83677 8.28248 6.83413 8.80414C6.8315 9.32579 7.03484 9.82742 7.39996 10.2L17.2 20L7.39996 29.8C7.03484 30.1726 6.8315 30.6742 6.83413 31.1959C6.83677 31.7175 7.04516 32.2171 7.41404 32.5859C7.78291 32.9548 8.28245 33.1632 8.80411 33.1658C9.32576 33.1685 9.82738 32.9651 10.2 32.6L20 22.8L29.8 32.6C30.1725 32.9651 30.6742 33.1685 31.1958 33.1658C31.7175 33.1632 32.217 32.9548 32.5859 32.5859C32.9548 32.2171 33.1632 31.7175 33.1658 31.1959C33.1684 30.6742 32.9651 30.1726 32.6 29.8L22.8 20Z" fill="#171064"/>
</g>
</svg>
