<svg width="20" height="20" viewBox="0 0 20 20" fill="none" xmlns="http://www.w3.org/2000/svg">
<g id="fluent:edit-28-filled">
<path id="Vector" d="M13.7779 2.25C14.0371 1.98246 14.347 1.76917 14.6895 1.62256C15.032 1.47594 15.4002 1.39892 15.7727 1.396C16.1453 1.39307 16.5147 1.46428 16.8594 1.60549C17.2042 1.7467 17.5174 1.95509 17.7808 2.21852C18.0442 2.48195 18.2526 2.79515 18.3938 3.1399C18.535 3.48464 18.6062 3.85403 18.6033 4.22657C18.6004 4.5991 18.5234 4.96733 18.3768 5.30981C18.2301 5.65229 18.0168 5.96217 17.7493 6.22143L16.6493 7.32143L12.6779 3.35L13.7779 2.25ZM11.9207 4.10714L3.21574 12.8121C2.90145 13.1264 2.67288 13.5164 2.55288 13.945L1.44788 17.8914C1.42235 17.9829 1.4216 18.0795 1.4457 18.1714C1.46981 18.2633 1.51791 18.3471 1.58507 18.4142C1.65223 18.4814 1.73604 18.5295 1.8279 18.5536C1.91977 18.5777 2.0164 18.577 2.10788 18.5514L6.05359 17.4464C6.48212 17.3265 6.87252 17.0982 7.18717 16.7836L15.8929 8.07928L11.9215 4.10786L11.9207 4.10714Z" fill="#CE3633"/>
</g>
</svg>
