<svg width="35" height="35" viewBox="0 0 35 35" fill="none" xmlns="http://www.w3.org/2000/svg">
<g id="icon-cart">
<path id="Vector" fill-rule="evenodd" clip-rule="evenodd" d="M12.6427 2.20938C12.4514 2.229 12.2687 2.29867 12.113 2.41138C11.9573 2.5241 11.834 2.67587 11.7556 2.8514L7.66938 12.0466H5.06297C3.28563 12.0466 1.93156 13.7025 2.23235 15.4383L4.72063 29.8047C5.02578 31.5634 6.57891 32.8278 8.34422 32.8278H26.6831C27.5422 32.8253 28.3736 32.5237 29.0345 31.9748C29.6953 31.4259 30.1444 30.664 30.3045 29.82L30.3067 29.8047L32.5391 16.9203C32.575 16.6407 32.5016 16.358 32.3342 16.1312C32.1667 15.9044 31.9182 15.751 31.6404 15.7031C31.3626 15.6551 31.077 15.7162 30.8431 15.8738C30.6093 16.0313 30.4454 16.273 30.3855 16.5484L28.1553 29.4175C28.093 29.762 27.9113 30.0734 27.642 30.2971C27.3727 30.5207 27.0332 30.6423 26.6831 30.6403H8.34531C7.61688 30.6403 6.99672 30.1317 6.87531 29.4328L4.38703 15.0664C4.30609 14.6016 4.60688 14.2341 5.06406 14.2341H21.8859C22.176 14.2341 22.4542 14.1188 22.6593 13.9137C22.8645 13.7086 22.9797 13.4304 22.9797 13.1403C22.9797 12.8502 22.8645 12.572 22.6593 12.3669C22.4542 12.1618 22.176 12.0466 21.8859 12.0466H10.0647L13.7561 3.74062C13.8338 3.56538 13.8641 3.3728 13.8439 3.18218C13.8237 2.99156 13.7538 2.80958 13.6411 2.6545C13.5285 2.49941 13.377 2.37665 13.202 2.29853C13.0269 2.22041 12.8333 2.18967 12.6427 2.20938ZM21.828 2.29688C21.6967 2.35518 21.5782 2.43877 21.4792 2.54288C21.3802 2.64699 21.3027 2.76958 21.2511 2.90365C21.1995 3.03772 21.1748 3.18065 21.1785 3.32426C21.1821 3.46786 21.214 3.60934 21.2723 3.74062L23.5605 8.88672C23.6782 9.15132 23.8961 9.35842 24.1664 9.46258C24.4366 9.56674 24.7371 9.55946 25.002 9.44234C25.2669 9.32458 25.4742 9.1065 25.5784 8.836C25.6826 8.56549 25.6751 8.26469 25.5577 7.99968L23.2695 2.8514C23.1516 2.58699 22.9336 2.38015 22.6634 2.2762C22.3931 2.17225 22.0927 2.17969 21.828 2.29688Z" fill="#CE3633"/>
<path id="Vector_2" fill-rule="evenodd" clip-rule="evenodd" d="M17.5 16.4216C17.2099 16.4216 16.9317 16.5368 16.7266 16.7419C16.5215 16.947 16.4062 17.2252 16.4062 17.5153V26.2653C16.4062 26.5554 16.5215 26.8336 16.7266 27.0387C16.9317 27.2438 17.2099 27.3591 17.5 27.3591C17.7901 27.3591 18.0683 27.2438 18.2734 27.0387C18.4785 26.8336 18.5938 26.5554 18.5938 26.2653V17.5153C18.5938 17.2252 18.4785 16.947 18.2734 16.7419C18.0683 16.5368 17.7901 16.4216 17.5 16.4216ZM13.125 16.4216C12.8349 16.4216 12.5567 16.5368 12.3516 16.7419C12.1465 16.947 12.0312 17.2252 12.0312 17.5153V26.2653C12.0312 26.5554 12.1465 26.8336 12.3516 27.0387C12.5567 27.2438 12.8349 27.3591 13.125 27.3591C13.4151 27.3591 13.6933 27.2438 13.8984 27.0387C14.1035 26.8336 14.2188 26.5554 14.2188 26.2653V17.5153C14.2188 17.2252 14.1035 16.947 13.8984 16.7419C13.6933 16.5368 13.4151 16.4216 13.125 16.4216ZM21.875 19.7028C21.5849 19.7028 21.3067 19.818 21.1016 20.0232C20.8965 20.2283 20.7812 20.5065 20.7812 20.7966V26.2653C20.7812 26.5554 20.8965 26.8336 21.1016 27.0387C21.3067 27.2438 21.5849 27.3591 21.875 27.3591C22.1651 27.3591 22.4433 27.2438 22.6484 27.0387C22.8535 26.8336 22.9688 26.5554 22.9688 26.2653V20.7966C22.9688 20.5065 22.8535 20.2283 22.6484 20.0232C22.4433 19.818 22.1651 19.7028 21.875 19.7028ZM27.3438 6.57782C23.7322 6.57782 20.7812 9.52876 20.7812 13.1403C20.7812 16.7519 23.7322 19.7028 27.3438 19.7028C30.9553 19.7028 33.9062 16.7519 33.9062 13.1403C33.9062 9.52876 30.9553 6.57782 27.3438 6.57782ZM27.3438 8.76532C29.773 8.76532 31.7188 10.7111 31.7188 13.1403C31.7188 15.5684 29.773 17.5153 27.3438 17.5153C24.9145 17.5153 22.9688 15.5684 22.9688 13.1403C22.9688 10.7111 24.9145 8.76532 27.3438 8.76532Z" fill="#E1742E"/>
<path id="Vector_3" fill-rule="evenodd" clip-rule="evenodd" d="M27.3438 9.85907C27.0537 9.85907 26.7755 9.9743 26.5704 10.1794C26.3652 10.3845 26.25 10.6627 26.25 10.9528V12.0466H25.1562C24.8662 12.0466 24.588 12.1618 24.3829 12.3669C24.1777 12.572 24.0625 12.8502 24.0625 13.1403C24.0625 13.4304 24.1777 13.7086 24.3829 13.9137C24.588 14.1188 24.8662 14.2341 25.1562 14.2341H26.25V15.3278C26.25 15.6179 26.3652 15.8961 26.5704 16.1012C26.7755 16.3063 27.0537 16.4216 27.3438 16.4216C27.6338 16.4216 27.912 16.3063 28.1171 16.1012C28.3223 15.8961 28.4375 15.6179 28.4375 15.3278V14.2341H29.5312C29.8213 14.2341 30.0995 14.1188 30.3046 13.9137C30.5098 13.7086 30.625 13.4304 30.625 13.1403C30.625 12.8502 30.5098 12.572 30.3046 12.3669C30.0995 12.1618 29.8213 12.0466 29.5312 12.0466H28.4375V10.9528C28.4375 10.6627 28.3223 10.3845 28.1171 10.1794C27.912 9.9743 27.6338 9.85907 27.3438 9.85907Z" fill="#E1742E"/>
</g>
</svg>
