<svg width="20" height="21" viewBox="0 0 20 21" fill="none" xmlns="http://www.w3.org/2000/svg">
<g id="Group">
<path id="Vector" d="M9.25 6.52142C8.314 6.7729 7.75 7.47919 7.75 8.1452C7.75 8.81122 8.314 9.51751 9.25 9.768V6.52142ZM10.75 11.434V14.6796C11.686 14.4291 12.25 13.7228 12.25 13.0568C12.25 12.3908 11.686 11.6845 10.75 11.434Z" fill="#CE3633"/>
<path id="Vector_2" fill-rule="evenodd" clip-rule="evenodd" d="M20 10.601C20 16.0264 15.523 20.4242 10 20.4242C4.477 20.4242 0 16.0264 0 10.601C0 5.17563 4.477 0.777771 10 0.777771C15.523 0.777771 20 5.17563 20 10.601ZM10 3.97032C10.1989 3.97032 10.3897 4.04794 10.5303 4.18611C10.671 4.32427 10.75 4.51167 10.75 4.70706V5.01846C12.38 5.3053 13.75 6.50865 13.75 8.1452C13.75 8.34059 13.671 8.52799 13.5303 8.66615C13.3897 8.80432 13.1989 8.88194 13 8.88194C12.8011 8.88194 12.6103 8.80432 12.4697 8.66615C12.329 8.52799 12.25 8.34059 12.25 8.1452C12.25 7.47918 11.686 6.77289 10.75 6.52142V9.93008C12.38 10.2169 13.75 11.4203 13.75 13.0568C13.75 14.6934 12.38 15.8967 10.75 16.1835V16.4949C10.75 16.6903 10.671 16.8777 10.5303 17.0159C10.3897 17.1541 10.1989 17.2317 10 17.2317C9.80109 17.2317 9.61032 17.1541 9.46967 17.0159C9.32902 16.8777 9.25 16.6903 9.25 16.4949V16.1835C7.62 15.8967 6.25 14.6934 6.25 13.0568C6.25 12.8614 6.32902 12.674 6.46967 12.5359C6.61032 12.3977 6.80109 12.3201 7 12.3201C7.19891 12.3201 7.38968 12.3977 7.53033 12.5359C7.67098 12.674 7.75 12.8614 7.75 13.0568C7.75 13.7228 8.314 14.4291 9.25 14.6796V11.2719C7.62 10.9851 6.25 9.78175 6.25 8.1452C6.25 6.50865 7.62 5.3053 9.25 5.01846V4.70706C9.25 4.51167 9.32902 4.32427 9.46967 4.18611C9.61032 4.04794 9.80109 3.97032 10 3.97032Z" fill="#CE3633"/>
</g>
</svg>
