<svg width="35" height="35" viewBox="0 0 35 35" fill="none" xmlns="http://www.w3.org/2000/svg">
<g id="7124045_logout_icon 3">
<path id="Vector" d="M24.7917 23.3333L30.625 17.5M30.625 17.5L24.7917 11.6667M30.625 17.5H10.2083M18.9583 23.3333V24.7917C18.9583 25.952 18.4974 27.0648 17.6769 27.8853C16.8565 28.7057 15.7437 29.1667 14.5833 29.1667H8.75C7.58968 29.1667 6.47688 28.7057 5.65641 27.8853C4.83594 27.0648 4.375 25.952 4.375 24.7917V10.2083C4.375 9.04802 4.83594 7.93522 5.65641 7.11475C6.47688 6.29428 7.58968 5.83334 8.75 5.83334H14.5833C15.7437 5.83334 16.8565 6.29428 17.6769 7.11475C18.4974 7.93522 18.9583 9.04802 18.9583 10.2083V11.6667" stroke="#171064" stroke-width="2" stroke-linecap="round" stroke-linejoin="round"/>
</g>
</svg>
