<svg width="20" height="20" viewBox="0 0 20 20" fill="none" xmlns="http://www.w3.org/2000/svg">
<path id="Vector" d="M10 15.2381C10.663 15.2381 11.2989 15.0374 11.7678 14.6802C12.2366 14.323 12.5 13.8385 12.5 13.3333C12.5 12.8282 12.2366 12.3437 11.7678 11.9865C11.2989 11.6293 10.663 11.4286 10 11.4286C9.33696 11.4286 8.70107 11.6293 8.23223 11.9865C7.76339 12.3437 7.5 12.8282 7.5 13.3333C7.5 13.8385 7.76339 14.323 8.23223 14.6802C8.70107 15.0374 9.33696 15.2381 10 15.2381ZM17.5 6.66667C18.163 6.66667 18.7989 6.86735 19.2678 7.22456C19.7366 7.58177 20 8.06625 20 8.57143V18.0952C20 18.6004 19.7366 19.0849 19.2678 19.4421C18.7989 19.7993 18.163 20 17.5 20H2.5C1.83696 20 1.20107 19.7993 0.732233 19.4421C0.263392 19.0849 0 18.6004 0 18.0952V8.57143C0 8.06625 0.263392 7.58177 0.732233 7.22456C1.20107 6.86735 1.83696 6.66667 2.5 6.66667H3.75V4.7619C3.75 3.49897 4.40848 2.28776 5.58058 1.39473C6.75269 0.501699 8.3424 0 10 0C10.8208 0 11.6335 0.12317 12.3918 0.362478C13.1501 0.601787 13.8391 0.952546 14.4194 1.39473C14.9998 1.83691 15.4602 2.36186 15.7742 2.9396C16.0883 3.51734 16.25 4.13656 16.25 4.7619V6.66667H17.5ZM10 1.90476C9.00544 1.90476 8.05161 2.20578 7.34835 2.7416C6.64509 3.27742 6.25 4.00414 6.25 4.7619V6.66667H13.75V4.7619C13.75 4.00414 13.3549 3.27742 12.6517 2.7416C11.9484 2.20578 10.9946 1.90476 10 1.90476Z" fill="#CE3633"/>
</svg>
