<svg width="25" height="25" viewBox="0 0 25 25" fill="none" xmlns="http://www.w3.org/2000/svg">
<g id="mdi:tag-text">
<path id="Vector" d="M21.4933 11.6633L12.4933 2.66333C12.1183 2.29141 11.6115 2.08291 11.0833 2.08333H4.08331C3.55288 2.08333 3.04417 2.29405 2.6691 2.66912C2.29403 3.04419 2.08331 3.5529 2.08331 4.08333V11.0833C2.08555 11.6129 2.29773 12.12 2.67331 12.4933L11.6733 21.4933C12.0467 21.8689 12.5537 22.0811 13.0833 22.0833C13.6129 22.0811 14.12 21.8689 14.4933 21.4933L21.4933 14.4933C21.8689 14.12 22.0811 13.6129 22.0833 13.0833C22.0835 12.8194 22.0315 12.5581 21.9302 12.3144C21.829 12.0707 21.6805 11.8494 21.4933 11.6633ZM6.58331 8.08333C6.28664 8.08333 5.99663 7.99536 5.74996 7.83054C5.50328 7.66571 5.31102 7.43145 5.19749 7.15736C5.08396 6.88327 5.05426 6.58167 5.11213 6.2907C5.17001 5.99973 5.31287 5.73245 5.52265 5.52267C5.73243 5.31289 5.99971 5.17003 6.29068 5.11215C6.58165 5.05428 6.88325 5.08398 7.15734 5.19751C7.43143 5.31104 7.6657 5.5033 7.83052 5.74998C7.99534 5.99665 8.08331 6.28666 8.08331 6.58333C8.08331 6.98116 7.92528 7.36269 7.64397 7.64399C7.36267 7.9253 6.98114 8.08333 6.58331 8.08333ZM11.6733 15.4933L7.67331 11.4933L9.08331 10.0833L13.0833 14.0833M15.6733 14.4933L10.1733 8.99333L11.5833 7.58333L17.0833 13.0833L15.6733 14.4933Z" fill="#CE3633"/>
</g>
</svg>
