<svg width="20" height="21" viewBox="0 0 20 21" fill="none" xmlns="http://www.w3.org/2000/svg">
<path id="Vector" d="M20 18.101V4.34848C20 3.26498 19.0033 2.38384 17.7778 2.38384H15.5556V0.419189H13.3333V2.38384H6.66667V0.419189H4.44444V2.38384H2.22222C0.996667 2.38384 0 3.26498 0 4.34848V18.101C0 19.1845 0.996667 20.0657 2.22222 20.0657H17.7778C19.0033 20.0657 20 19.1845 20 18.101ZM6.66667 16.1364H4.44444V14.1717H6.66667V16.1364ZM6.66667 12.2071H4.44444V10.2424H6.66667V12.2071ZM11.1111 16.1364H8.88889V14.1717H11.1111V16.1364ZM11.1111 12.2071H8.88889V10.2424H11.1111V12.2071ZM15.5556 16.1364H13.3333V14.1717H15.5556V16.1364ZM15.5556 12.2071H13.3333V10.2424H15.5556V12.2071ZM17.7778 7.29545H2.22222V5.33081H17.7778V7.29545Z" fill="#CE3633"/>
</svg>
