<svg width="20" height="21" viewBox="0 0 20 21" fill="none" xmlns="http://www.w3.org/2000/svg">
<path id="Vector" fill-rule="evenodd" clip-rule="evenodd" d="M0 5.2687V7.42853C0.000109663 7.55757 0.0275065 7.68443 0.0795837 7.79704C0.131661 7.90965 0.206686 8.00427 0.297521 8.07188C0.388355 8.13949 0.491978 8.17786 0.598528 8.18332C0.705078 8.18879 0.811012 8.16117 0.90625 8.1031L2.01375 7.42853L2.485 7.14116L2.5 7.13208L4.255 6.06124L4.3425 6.00679L5.17 5.50313L5.92375 5.04334C6.0271 4.98031 6.11396 4.88381 6.17464 4.76457C6.23533 4.64533 6.26746 4.50804 6.26746 4.36801C6.26746 4.22797 6.23533 4.09069 6.17464 3.97145C6.11396 3.85221 6.0271 3.75571 5.92375 3.69268L5.17 3.23137L4.3425 2.72771L4.255 2.67326L2.5 1.60242L2.485 1.59486L2.01375 1.30749L0.90625 0.631403C0.811012 0.573335 0.705078 0.54572 0.598528 0.551185C0.491978 0.556651 0.388355 0.595015 0.297521 0.662628C0.206686 0.730241 0.131661 0.824854 0.0795837 0.937463C0.0275065 1.05007 0.000109663 1.17693 0 1.30597L0 5.2687ZM9.0625 2.04709C8.81386 2.04709 8.5754 2.16661 8.39959 2.37934C8.22377 2.59208 8.125 2.88061 8.125 3.18146C8.125 3.48231 8.22377 3.77085 8.39959 3.98358C8.5754 4.19632 8.81386 4.31583 9.0625 4.31583H17.8125C17.8954 4.31583 17.9749 4.35567 18.0335 4.42658C18.0921 4.49749 18.125 4.59367 18.125 4.69395V17.5501C18.125 17.6504 18.0921 17.7466 18.0335 17.8175C17.9749 17.8884 17.8954 17.9282 17.8125 17.9282H5.9375C5.85462 17.9282 5.77513 17.8884 5.71653 17.8175C5.65792 17.7466 5.625 17.6504 5.625 17.5501V9.23747C5.625 8.93662 5.52623 8.64809 5.35041 8.43535C5.1746 8.22262 4.93614 8.1031 4.6875 8.1031C4.43886 8.1031 4.2004 8.22262 4.02459 8.43535C3.84877 8.64809 3.75 8.93662 3.75 9.23747V17.5501C3.75 19.0112 4.73 20.197 5.9375 20.197H17.8125C18.3927 20.197 18.9491 19.9181 19.3593 19.4217C19.7695 18.9253 20 18.2521 20 17.5501V4.69395C20 3.99196 19.7695 3.31872 19.3593 2.82234C18.9491 2.32596 18.3927 2.04709 17.8125 2.04709H9.0625ZM8.4375 8.09705C8.18886 8.09705 7.9504 8.21657 7.77459 8.4293C7.59877 8.64204 7.5 8.93057 7.5 9.23142C7.5 9.53227 7.59877 9.8208 7.77459 10.0335C7.9504 10.2463 8.18886 10.3658 8.4375 10.3658H15.3125C15.5611 10.3658 15.7996 10.2463 15.9754 10.0335C16.1512 9.8208 16.25 9.53227 16.25 9.23142C16.25 8.93057 16.1512 8.64204 15.9754 8.4293C15.7996 8.21657 15.5611 8.09705 15.3125 8.09705H8.4375ZM7.5 13.0126C7.5 12.7118 7.59877 12.4233 7.77459 12.2105C7.9504 11.9978 8.18886 11.8783 8.4375 11.8783H12.8125C13.0611 11.8783 13.2996 11.9978 13.4754 12.2105C13.6512 12.4233 13.75 12.7118 13.75 13.0126C13.75 13.3135 13.6512 13.602 13.4754 13.8148C13.2996 14.0275 13.0611 14.147 12.8125 14.147H8.4375C8.18886 14.147 7.9504 14.0275 7.77459 13.8148C7.59877 13.602 7.5 13.3135 7.5 13.0126Z" fill="#CE3633"/>
</svg>
