<svg width="40" height="40" viewBox="0 0 40 40" fill="none" xmlns="http://www.w3.org/2000/svg">
<g id="basil:edit-solid">
<path id="Vector" d="M27.4617 5.00667C27.74 5.03167 27.8617 5.37167 27.6617 5.57L13.795 19.4367C13.6384 19.5934 13.5262 19.789 13.47 20.0033L11.8033 26.3867C11.7483 26.5976 11.7494 26.8193 11.8065 27.0297C11.8637 27.2401 11.9748 27.4319 12.129 27.586C12.2831 27.7402 12.4749 27.8513 12.6853 27.9085C12.8957 27.9656 13.1174 27.9667 13.3283 27.9117L19.71 26.245C19.9245 26.1883 20.1201 26.0755 20.2767 25.9183L34.34 11.855C34.384 11.8098 34.44 11.7782 34.5014 11.7639C34.5628 11.7496 34.6271 11.7531 34.6865 11.7742C34.7459 11.7952 34.7981 11.8328 34.8368 11.8826C34.8756 11.9324 34.8992 11.9922 34.905 12.055C35.4901 17.6377 35.4565 23.268 34.805 28.8433C34.4333 32.0183 31.8817 34.51 28.7183 34.865C22.9244 35.5073 17.0772 35.5073 11.2833 34.865C8.11833 34.51 5.56666 32.0183 5.195 28.8433C4.50788 22.9684 4.50788 17.0333 5.195 11.1583C5.56666 7.98167 8.11833 5.49 11.2833 5.13667C16.6575 4.54109 22.0786 4.49753 27.4617 5.00667Z" fill="#CE3633"/>
<path id="Vector_2" d="M29.705 7.06167C29.7437 7.02286 29.7897 6.99208 29.8403 6.97107C29.8909 6.95007 29.9452 6.93925 30 6.93925C30.0548 6.93925 30.1091 6.95007 30.1597 6.97107C30.2103 6.99208 30.2563 7.02286 30.295 7.06167L32.6517 9.42C32.7295 9.4981 32.7733 9.60388 32.7733 9.71417C32.7733 9.82445 32.7295 9.93023 32.6517 10.0083L18.83 23.8333C18.7773 23.8855 18.7118 23.9229 18.64 23.9417L15.45 24.775C15.3797 24.7933 15.3058 24.793 15.2357 24.7739C15.1655 24.7549 15.1016 24.7178 15.0502 24.6664C14.9988 24.6151 14.9618 24.5511 14.9428 24.481C14.9237 24.4109 14.9233 24.337 14.9417 24.2667L15.775 21.0767C15.7936 21.0048 15.831 20.9392 15.8833 20.8867L29.705 7.06167Z" fill="#CE3633"/>
</g>
</svg>
