<svg width="32" height="32" viewBox="0 0 32 32" fill="none" xmlns="http://www.w3.org/2000/svg">
<g id="icon-close 1" clip-path="url(#clip0_284_26)">
<g id="Layer 2">
<path id="Vector" d="M3.99994 29C3.86833 29.0008 3.73787 28.9755 3.61603 28.9258C3.49419 28.876 3.38338 28.8027 3.28994 28.71C3.19621 28.617 3.12182 28.5064 3.07105 28.3846C3.02028 28.2627 2.99414 28.132 2.99414 28C2.99414 27.868 3.02028 27.7373 3.07105 27.6154C3.12182 27.4936 3.19621 27.383 3.28994 27.29L27.2899 3.29C27.4782 3.1017 27.7336 2.99591 27.9999 2.99591C28.2662 2.99591 28.5216 3.1017 28.7099 3.29C28.8982 3.47831 29.004 3.7337 29.004 4C29.004 4.2663 28.8982 4.5217 28.7099 4.71L4.70994 28.71C4.6165 28.8027 4.50568 28.876 4.38385 28.9258C4.26201 28.9755 4.13155 29.0008 3.99994 29Z" fill="#CE3633"/>
<path id="Vector_2" d="M27.9999 29C27.8683 29.0008 27.7379 28.9755 27.616 28.9258C27.4942 28.876 27.3834 28.8027 27.2899 28.71L3.28994 4.71C3.10164 4.5217 2.99585 4.2663 2.99585 4C2.99585 3.86814 3.02182 3.73758 3.07228 3.61575C3.12274 3.49393 3.1967 3.38324 3.28994 3.29C3.38318 3.19676 3.49387 3.1228 3.61569 3.07234C3.73751 3.02188 3.86808 2.99591 3.99994 2.99591C4.26624 2.99591 4.52164 3.1017 4.70994 3.29L28.7099 27.29C28.8037 27.383 28.8781 27.4936 28.9288 27.6154C28.9796 27.7373 29.0057 27.868 29.0057 28C29.0057 28.132 28.9796 28.2627 28.9288 28.3846C28.8781 28.5064 28.8037 28.617 28.7099 28.71C28.6165 28.8027 28.5057 28.876 28.3838 28.9258C28.262 28.9755 28.1315 29.0008 27.9999 29Z" fill="#CE3633"/>
</g>
</g>
<defs>
<clipPath id="clip0_284_26">
<rect width="32" height="32" fill="white"/>
</clipPath>
</defs>
</svg>
