<svg width="35" height="35" viewBox="0 0 35 35" fill="none" xmlns="http://www.w3.org/2000/svg">
<g id="icon-logout">
<path id="Vector" d="M5.83334 17.5C5.83334 17.8868 5.98699 18.2577 6.26048 18.5312C6.53397 18.8047 6.9049 18.9583 7.29168 18.9583H18.3604L15.0063 22.2979C14.8696 22.4335 14.7611 22.5948 14.687 22.7725C14.613 22.9502 14.5749 23.1408 14.5749 23.3333C14.5749 23.5258 14.613 23.7165 14.687 23.8942C14.7611 24.0719 14.8696 24.2332 15.0063 24.3687C15.1418 24.5054 15.3031 24.6139 15.4808 24.688C15.6585 24.762 15.8492 24.8001 16.0417 24.8001C16.2342 24.8001 16.4248 24.762 16.6025 24.688C16.7802 24.6139 16.9415 24.5054 17.0771 24.3687L22.9104 18.5354C23.0432 18.3967 23.1473 18.2332 23.2167 18.0542C23.3625 17.6991 23.3625 17.3009 23.2167 16.9458C23.1473 16.7668 23.0432 16.6033 22.9104 16.4646L17.0771 10.6312C16.9411 10.4953 16.7797 10.3874 16.602 10.3138C16.4244 10.2402 16.234 10.2024 16.0417 10.2024C15.8494 10.2024 15.659 10.2402 15.4813 10.3138C15.3037 10.3874 15.1422 10.4953 15.0063 10.6312C14.8703 10.7672 14.7624 10.9286 14.6888 11.1063C14.6153 11.2839 14.5774 11.4744 14.5774 11.6667C14.5774 11.859 14.6153 12.0494 14.6888 12.227C14.7624 12.4047 14.8703 12.5661 15.0063 12.7021L18.3604 16.0417H7.29168C6.9049 16.0417 6.53397 16.1953 6.26048 16.4688C5.98699 16.7423 5.83334 17.1132 5.83334 17.5ZM24.7917 2.91666H10.2083C9.04802 2.91666 7.93522 3.37759 7.11475 4.19806C6.29428 5.01854 5.83334 6.13133 5.83334 7.29166V11.6667C5.83334 12.0534 5.98699 12.4244 6.26048 12.6979C6.53397 12.9713 6.9049 13.125 7.29168 13.125C7.67845 13.125 8.04938 12.9713 8.32287 12.6979C8.59636 12.4244 8.75001 12.0534 8.75001 11.6667V7.29166C8.75001 6.90488 8.90366 6.53395 9.17715 6.26046C9.45064 5.98697 9.82157 5.83332 10.2083 5.83332H24.7917C25.1784 5.83332 25.5494 5.98697 25.8229 6.26046C26.0964 6.53395 26.25 6.90488 26.25 7.29166V27.7083C26.25 28.0951 26.0964 28.466 25.8229 28.7395C25.5494 29.013 25.1784 29.1667 24.7917 29.1667H10.2083C9.82157 29.1667 9.45064 29.013 9.17715 28.7395C8.90366 28.466 8.75001 28.0951 8.75001 27.7083V23.3333C8.75001 22.9465 8.59636 22.5756 8.32287 22.3021C8.04938 22.0286 7.67845 21.875 7.29168 21.875C6.9049 21.875 6.53397 22.0286 6.26048 22.3021C5.98699 22.5756 5.83334 22.9465 5.83334 23.3333V27.7083C5.83334 28.8686 6.29428 29.9814 7.11475 30.8019C7.93522 31.6224 9.04802 32.0833 10.2083 32.0833H24.7917C25.952 32.0833 27.0648 31.6224 27.8853 30.8019C28.7057 29.9814 29.1667 28.8686 29.1667 27.7083V7.29166C29.1667 6.13133 28.7057 5.01854 27.8853 4.19806C27.0648 3.37759 25.952 2.91666 24.7917 2.91666Z" fill="#CE3633"/>
</g>
</svg>
