<svg width="18" height="18" viewBox="0 0 18 18" fill="none" xmlns="http://www.w3.org/2000/svg">
<g id="zondicons:minus-solid" clip-path="url(#clip0_234_23)">
<path id="Vector" d="M9 18C6.61305 18 4.32387 17.0518 2.63604 15.364C0.948211 13.6761 0 11.3869 0 9C0 6.61305 0.948211 4.32387 2.63604 2.63604C4.32387 0.948211 6.61305 0 9 0C11.3869 0 13.6761 0.948211 15.364 2.63604C17.0518 4.32387 18 6.61305 18 9C18 11.3869 17.0518 13.6761 15.364 15.364C13.6761 17.0518 11.3869 18 9 18ZM13.5 8.1H4.5V9.9H13.5V8.1Z" fill="#CE3633"/>
</g>
<defs>
<clipPath id="clip0_234_23">
<rect width="18" height="18" fill="white"/>
</clipPath>
</defs>
</svg>
