<svg width="30" height="30" viewBox="0 0 30 30" fill="none" xmlns="http://www.w3.org/2000/svg">
<g id="eva:trash-2-outline">
<g id="evaTrash2Outline0">
<g id="evaTrash2Outline1">
<g id="evaTrash2Outline2">
<path id="Vector" d="M26.25 7.5H20V5.4125C19.9707 4.61227 19.6253 3.85632 19.0395 3.31036C18.4537 2.76441 17.6753 2.47299 16.875 2.5H13.125C12.3247 2.47299 11.5463 2.76441 10.9605 3.31036C10.3747 3.85632 10.0293 4.61227 10 5.4125V7.5H3.75C3.41848 7.5 3.10054 7.6317 2.86612 7.86612C2.6317 8.10054 2.5 8.41848 2.5 8.75C2.5 9.08152 2.6317 9.39946 2.86612 9.63388C3.10054 9.8683 3.41848 10 3.75 10H5V23.75C5 24.7446 5.39509 25.6984 6.09835 26.4016C6.80161 27.1049 7.75544 27.5 8.75 27.5H21.25C22.2446 27.5 23.1984 27.1049 23.9017 26.4016C24.6049 25.6984 25 24.7446 25 23.75V10H26.25C26.5815 10 26.8995 9.8683 27.1339 9.63388C27.3683 9.39946 27.5 9.08152 27.5 8.75C27.5 8.41848 27.3683 8.10054 27.1339 7.86612C26.8995 7.6317 26.5815 7.5 26.25 7.5ZM12.5 5.4125C12.5 5.2125 12.7625 5 13.125 5H16.875C17.2375 5 17.5 5.2125 17.5 5.4125V7.5H12.5V5.4125ZM22.5 23.75C22.5 24.0815 22.3683 24.3995 22.1339 24.6339C21.8995 24.8683 21.5815 25 21.25 25H8.75C8.41848 25 8.10054 24.8683 7.86612 24.6339C7.6317 24.3995 7.5 24.0815 7.5 23.75V10H22.5V23.75Z" fill="white"/>
<path id="Vector_2" d="M11.25 21.25C11.5815 21.25 11.8995 21.1183 12.1339 20.8839C12.3683 20.6495 12.5 20.3315 12.5 20V15C12.5 14.6685 12.3683 14.3505 12.1339 14.1161C11.8995 13.8817 11.5815 13.75 11.25 13.75C10.9185 13.75 10.6005 13.8817 10.3661 14.1161C10.1317 14.3505 10 14.6685 10 15V20C10 20.3315 10.1317 20.6495 10.3661 20.8839C10.6005 21.1183 10.9185 21.25 11.25 21.25ZM18.75 21.25C19.0815 21.25 19.3995 21.1183 19.6339 20.8839C19.8683 20.6495 20 20.3315 20 20V15C20 14.6685 19.8683 14.3505 19.6339 14.1161C19.3995 13.8817 19.0815 13.75 18.75 13.75C18.4185 13.75 18.1005 13.8817 17.8661 14.1161C17.6317 14.3505 17.5 14.6685 17.5 15V20C17.5 20.3315 17.6317 20.6495 17.8661 20.8839C18.1005 21.1183 18.4185 21.25 18.75 21.25Z" fill="white"/>
</g>
</g>
</g>
</g>
</svg>
