<svg width="40" height="41" viewBox="0 0 40 41" fill="none" xmlns="http://www.w3.org/2000/svg">
<g id="eva:trash-2-outline">
<rect width="40" height="40.1843" transform="translate(0 0.668198)" fill="#FCFCFC"/>
<g id="evaTrash2Outline0">
<g id="evaTrash2Outline1">
<g id="evaTrash2Outline2">
<path id="Vector" d="M35 10.7143H26.6667V7.91812C26.6276 6.84624 26.167 5.83366 25.386 5.10236C24.6049 4.37106 23.5671 3.98071 22.5 4.01689H17.5C16.4329 3.98071 15.3951 4.37106 14.6141 5.10236C13.833 5.83366 13.3724 6.84624 13.3333 7.91812V10.7143H5.00001C4.55798 10.7143 4.13406 10.8907 3.8215 11.2047C3.50894 11.5187 3.33334 11.9446 3.33334 12.3886C3.33334 12.8327 3.50894 13.2586 3.8215 13.5726C4.13406 13.8866 4.55798 14.063 5.00001 14.063H6.66668V32.4808C6.66668 33.813 7.19346 35.0906 8.13114 36.0326C9.06882 36.9746 10.3406 37.5038 11.6667 37.5038H28.3333C29.6594 37.5038 30.9312 36.9746 31.8689 36.0326C32.8066 35.0906 33.3333 33.813 33.3333 32.4808V14.063H35C35.442 14.063 35.866 13.8866 36.1785 13.5726C36.4911 13.2586 36.6667 12.8327 36.6667 12.3886C36.6667 11.9446 36.4911 11.5187 36.1785 11.2047C35.866 10.8907 35.442 10.7143 35 10.7143ZM16.6667 7.91812C16.6667 7.65022 17.0167 7.36559 17.5 7.36559H22.5C22.9833 7.36559 23.3333 7.65022 23.3333 7.91812V10.7143H16.6667V7.91812ZM30 32.4808C30 32.9249 29.8244 33.3507 29.5119 33.6647C29.1993 33.9787 28.7754 34.1551 28.3333 34.1551H11.6667C11.2246 34.1551 10.8007 33.9787 10.4882 33.6647C10.1756 33.3507 10 32.9249 10 32.4808V14.063H30V32.4808Z" fill="#CE3633"/>
<path id="Vector_2" d="M15 29.1321C15.442 29.1321 15.866 28.9557 16.1785 28.6417C16.4911 28.3277 16.6667 27.9018 16.6667 27.4577V20.7604C16.6667 20.3163 16.4911 19.8904 16.1785 19.5764C15.866 19.2624 15.442 19.086 15 19.086C14.558 19.086 14.1341 19.2624 13.8215 19.5764C13.5089 19.8904 13.3333 20.3163 13.3333 20.7604V27.4577C13.3333 27.9018 13.5089 28.3277 13.8215 28.6417C14.1341 28.9557 14.558 29.1321 15 29.1321ZM25 29.1321C25.442 29.1321 25.866 28.9557 26.1785 28.6417C26.4911 28.3277 26.6667 27.9018 26.6667 27.4577V20.7604C26.6667 20.3163 26.4911 19.8904 26.1785 19.5764C25.866 19.2624 25.442 19.086 25 19.086C24.558 19.086 24.1341 19.2624 23.8215 19.5764C23.5089 19.8904 23.3333 20.3163 23.3333 20.7604V27.4577C23.3333 27.9018 23.5089 28.3277 23.8215 28.6417C24.1341 28.9557 24.558 29.1321 25 29.1321Z" fill="#CE3633"/>
</g>
</g>
</g>
</g>
</svg>
