<svg width="25" height="25" viewBox="0 0 25 25" fill="none" xmlns="http://www.w3.org/2000/svg">
<g id="clarity:email-solid" clip-path="url(#clip0_317_236)">
<path id="Vector" d="M22.4514 4.16667C22.3567 4.15691 22.2613 4.15691 22.1667 4.16667H2.72222C2.5976 4.16859 2.4738 4.18727 2.35416 4.22222L12.3889 14.2153L22.4514 4.16667Z" fill="#CE3633"/>
<path id="Vector_2" d="M23.4792 5.13194L13.3681 15.2014C13.1078 15.4601 12.7558 15.6053 12.3889 15.6053C12.022 15.6053 11.6699 15.4601 11.4097 15.2014L1.38889 5.20833C1.35808 5.32156 1.34175 5.43823 1.34028 5.55556V19.4444C1.34028 19.8128 1.48661 20.1661 1.74707 20.4265C2.00754 20.687 2.36081 20.8333 2.72917 20.8333H22.1736C22.542 20.8333 22.8952 20.687 23.1557 20.4265C23.4162 20.1661 23.5625 19.8128 23.5625 19.4444V5.55556C23.557 5.41087 23.5289 5.26794 23.4792 5.13194ZM3.68056 19.4444H2.71528V18.4514L7.76389 13.4444L8.74306 14.4236L3.68056 19.4444ZM22.1597 19.4444H21.1875L16.125 14.4236L17.1042 13.4444L22.1528 18.4514L22.1597 19.4444Z" fill="#CE3633"/>
</g>
<defs>
<clipPath id="clip0_317_236">
<rect width="25" height="25" fill="white"/>
</clipPath>
</defs>
</svg>
