<svg width="25" height="25" viewBox="0 0 25 25" fill="none" xmlns="http://www.w3.org/2000/svg">
<g id="mingcute:tag-fill" clip-path="url(#clip0_317_282)">
<g id="Group">
<path id="Vector" fill-rule="evenodd" clip-rule="evenodd" d="M10.8504 2.25398C11.2649 2.21626 11.6828 2.26296 12.0788 2.39125C12.4748 2.51954 12.8406 2.72676 13.1543 3.00039L13.3083 3.14413L21.339 11.176C21.8917 11.7288 22.2135 12.4711 22.2392 13.2524C22.265 14.0337 21.9927 14.7955 21.4776 15.3835L21.339 15.5313L15.531 21.3394C14.9783 21.8921 14.236 22.2139 13.4547 22.2396C12.6735 22.2654 11.9117 21.9931 11.3237 21.478L11.1759 21.3394L3.14309 13.3075C2.84892 13.0133 2.61739 12.6626 2.46246 12.2765C2.30754 11.8904 2.23243 11.477 2.24167 11.061L2.25296 10.8506L2.73755 5.52711C2.79977 4.84105 3.09017 4.19565 3.56234 3.69406C4.03452 3.19247 4.66121 2.86365 5.34225 2.76015L5.52602 2.73859L10.8504 2.25398ZM8.27035 8.27149C8.07964 8.46221 7.92836 8.68862 7.82514 8.9378C7.72193 9.18698 7.66881 9.45405 7.66881 9.72376C7.66881 9.99348 7.72193 10.2605 7.82514 10.5097C7.92836 10.7589 8.07964 10.9853 8.27035 11.176C8.46106 11.3668 8.68747 11.518 8.93664 11.6212C9.18582 11.7245 9.45288 11.7776 9.72259 11.7776C9.9923 11.7776 10.2594 11.7245 10.5085 11.6212C10.7577 11.518 10.9841 11.3668 11.1748 11.176C11.56 10.7909 11.7764 10.2685 11.7764 9.72376C11.7764 9.17906 11.56 8.65666 11.1748 8.27149C10.7897 7.88632 10.2673 7.66994 9.72259 7.66994C9.17789 7.66994 8.65551 7.88632 8.27035 8.27149Z" fill="#CE3633"/>
</g>
</g>
<defs>
<clipPath id="clip0_317_282">
<rect width="25" height="25" fill="white"/>
</clipPath>
</defs>
</svg>
