<svg width="20" height="21" viewBox="0 0 20 21" fill="none" xmlns="http://www.w3.org/2000/svg">
<path id="Vector" d="M20 3.11996V17.8548C20 18.5061 19.7366 19.1308 19.2678 19.5913C18.7989 20.0519 18.163 20.3106 17.5 20.3106H2.5C1.83696 20.3106 1.20107 20.0519 0.732233 19.5913C0.263392 19.1308 0 18.5061 0 17.8548V3.11996C0 2.46864 0.263392 1.844 0.732233 1.38344C1.20107 0.92289 1.83696 0.664154 2.5 0.664154H17.5C18.163 0.664154 18.7989 0.92289 19.2678 1.38344C19.7366 1.844 20 2.46864 20 3.11996ZM17.5 3.11996H2.5V10.954L5.2375 8.26488L11.775 14.6868L13.025 13.4589C13.4052 13.1602 13.8837 13.009 14.3699 13.0339C14.8561 13.0588 15.316 13.2581 15.6625 13.594L17.5 15.399V3.11996ZM11.25 7.41763C11.25 6.92914 11.4475 6.46065 11.7992 6.11524C12.1508 5.76982 12.6277 5.57577 13.125 5.57577C13.6223 5.57577 14.0992 5.76982 14.4508 6.11524C14.8025 6.46065 15 6.92914 15 7.41763C15 7.90612 14.8025 8.3746 14.4508 8.72002C14.0992 9.06543 13.6223 9.25948 13.125 9.25948C12.6277 9.25948 12.1508 9.06543 11.7992 8.72002C11.4475 8.3746 11.25 7.90612 11.25 7.41763Z" fill="#CE3633"/>
</svg>
