<svg width="39" height="35" viewBox="0 0 39 35" fill="none" xmlns="http://www.w3.org/2000/svg">
<g id="Frame">
<path id="Vector" fill-rule="evenodd" clip-rule="evenodd" d="M22.6554 8.75C16.101 8.75 10.7621 13.6598 10.7621 19.6875C10.7621 25.7152 16.101 30.625 22.6554 30.625C29.2097 30.625 34.5486 25.7152 34.5486 19.6875C34.5486 13.6598 29.2097 8.75 22.6554 8.75ZM22.6554 10.9375C27.924 10.9375 32.1699 14.8422 32.1699 19.6875C32.1699 24.5328 27.924 28.4375 22.6554 28.4375C17.3867 28.4375 13.1408 24.5328 13.1408 19.6875C13.1408 14.8422 17.3867 10.9375 22.6554 10.9375ZM20.2767 5.46875C19.9613 5.46875 19.6588 5.58398 19.4358 5.7891C19.2127 5.99422 19.0874 6.27242 19.0874 6.5625C19.0874 6.85258 19.2127 7.13078 19.4358 7.3359C19.6588 7.54102 19.9613 7.65625 20.2767 7.65625H25.034C25.3494 7.65625 25.6519 7.54102 25.875 7.3359C26.098 7.13078 26.2233 6.85258 26.2233 6.5625C26.2233 6.27242 26.098 5.99422 25.875 5.7891C25.6519 5.58398 25.3494 5.46875 25.034 5.46875H20.2767Z" fill="#CE3633"/>
<path id="Vector_2" fill-rule="evenodd" clip-rule="evenodd" d="M22.6554 5.46875C22.3399 5.46875 22.0374 5.58398 21.8144 5.7891C21.5914 5.99422 21.466 6.27242 21.466 6.5625V9.84375C21.466 10.1338 21.5914 10.412 21.8144 10.6171C22.0374 10.8223 22.3399 10.9375 22.6554 10.9375C22.9708 10.9375 23.2733 10.8223 23.4963 10.6171C23.7194 10.412 23.8447 10.1338 23.8447 9.84375V6.5625C23.8447 6.27242 23.7194 5.99422 23.4963 5.7891C23.2733 5.58398 22.9708 5.46875 22.6554 5.46875ZM31.0639 7.76562C30.7485 7.76569 30.446 7.88096 30.223 8.08609C30 8.2912 29.8748 8.56935 29.8748 8.85937C29.8748 9.1494 30 9.42755 30.223 9.63266L33.5888 12.728C33.8118 12.933 34.1143 13.0482 34.4296 13.0482C34.745 13.0482 35.0474 12.933 35.2705 12.728C35.4934 12.5229 35.6187 12.2447 35.6187 11.9547C35.6187 11.6647 35.4934 11.3865 35.2705 11.1814L31.9047 8.08609C31.6817 7.88096 31.3793 7.76569 31.0639 7.76562Z" fill="#CE3633"/>
<path id="Vector_3" fill-rule="evenodd" clip-rule="evenodd" d="M32.7455 9.31437C32.4307 9.31356 32.1283 9.42763 31.9047 9.63156L29.3833 11.9547C29.1604 12.1598 29.0351 12.4379 29.0351 12.728C29.0351 13.018 29.1604 13.2961 29.3833 13.5012C29.6063 13.706 29.9085 13.8209 30.2236 13.8209C30.5386 13.8209 30.8409 13.706 31.0638 13.5012L33.5888 11.1814C33.6995 11.0798 33.7874 10.9591 33.8474 10.8262C33.9073 10.6933 33.9382 10.5509 33.9382 10.407C33.9382 10.2632 33.9073 10.1207 33.8474 9.98782C33.7874 9.85494 33.6995 9.73425 33.5888 9.63265C33.4779 9.53121 33.3463 9.45089 33.2016 9.39627C33.0569 9.34166 32.902 9.31383 32.7455 9.31437Z" fill="#CE3633"/>
<path id="Vector_4" fill-rule="evenodd" clip-rule="evenodd" d="M22.6553 13.125C22.3399 13.125 22.0374 13.2402 21.8144 13.4454C21.5913 13.6505 21.466 13.9287 21.466 14.2188V19.2347L18.2465 22.1955C18.0236 22.4006 17.8983 22.6787 17.8983 22.9688C17.8983 23.2588 18.0236 23.5369 18.2465 23.742C18.4696 23.9471 18.772 24.0623 19.0874 24.0623C19.4027 24.0623 19.7052 23.9471 19.9282 23.742L23.4962 20.4608C23.7192 20.2557 23.8446 19.9776 23.8447 19.6875V14.2188C23.8447 13.9287 23.7193 13.6505 23.4963 13.4454C23.2733 13.2402 22.9708 13.125 22.6553 13.125ZM3.62621 7.65625C3.31078 7.65625 3.00829 7.77148 2.78525 7.9766C2.56221 8.18172 2.43689 8.45992 2.43689 8.75C2.43689 9.04008 2.56221 9.31828 2.78525 9.5234C3.00829 9.72852 3.31078 9.84375 3.62621 9.84375H13.1408C13.4562 9.84375 13.7587 9.72852 13.9817 9.5234C14.2048 9.31828 14.3301 9.04008 14.3301 8.75C14.3301 8.45992 14.2048 8.18172 13.9817 7.9766C13.7587 7.77148 13.4562 7.65625 13.1408 7.65625H3.62621ZM3.62621 12.0313C3.31078 12.0313 3.00829 12.1465 2.78525 12.3516C2.56221 12.5567 2.43689 12.8349 2.43689 13.125C2.43689 13.4151 2.56221 13.6933 2.78525 13.8984C3.00829 14.1035 3.31078 14.2188 3.62621 14.2188H9.57281C9.88824 14.2188 10.1907 14.1035 10.4138 13.8984C10.6368 13.6933 10.7621 13.4151 10.7621 13.125C10.7621 12.8349 10.6368 12.5567 10.4138 12.3516C10.1907 12.1465 9.88824 12.0313 9.57281 12.0313H3.62621ZM3.62621 16.4063C3.31078 16.4063 3.00829 16.5215 2.78525 16.7266C2.56221 16.9317 2.43689 17.2099 2.43689 17.5C2.43689 17.7901 2.56221 18.0683 2.78525 18.2734C3.00829 18.4785 3.31078 18.5938 3.62621 18.5938H7.19417C7.5096 18.5938 7.81209 18.4785 8.03513 18.2734C8.25817 18.0683 8.38349 17.7901 8.38349 17.5C8.38349 17.2099 8.25817 16.9317 8.03513 16.7266C7.81209 16.5215 7.5096 16.4063 7.19417 16.4063H3.62621Z" fill="#E1742E"/>
</g>
</svg>
